<?xml version="1.0" encoding="utf-8"?>
<!-- Generator: Adobe Illustrator 26.5.0, SVG Export Plug-In . SVG Version: 6.00 Build 0)  -->
<svg version="1.1" id="Layer_1" xmlns="http://www.w3.org/2000/svg" xmlns:xlink="http://www.w3.org/1999/xlink" x="0px" y="0px"
	 viewBox="0 0 80.28 25.73" style="enable-background:new 0 0 80.28 25.73;" xml:space="preserve">
<style type="text/css">
	.st0{fill:#1EE698;}
	.st1{fill:#1D1D1B;}
</style>
<g>
	<rect x="71.27" y="16.58" class="st0" width="9.02" height="8.69"/>
	<path class="st1" d="M0,0h11.43c1.21,0,2.29,0.06,3.25,0.17c0.96,0.12,1.88,0.33,2.75,0.63c0.87,0.3,1.58,0.69,2.15,1.17
		c0.57,0.48,1.02,1.1,1.36,1.88c0.34,0.78,0.51,1.68,0.51,2.7c0,2.28-1.04,4.03-3.11,5.26c2.77,0.95,4.16,2.85,4.16,5.68
		c0,5.18-3.53,7.77-10.6,7.77H0V0z M6.18,10.11h5.46c1.06,0,1.89-0.23,2.48-0.7c0.59-0.46,0.89-1.09,0.89-1.88
		c0-0.79-0.3-1.41-0.89-1.85c-0.59-0.44-1.42-0.66-2.48-0.66H6.18V10.11z M6.18,20.25h5.79c1.3,0,2.29-0.25,2.97-0.75
		c0.67-0.5,1.01-1.2,1.01-2.11s-0.34-1.61-1.01-2.11c-0.68-0.5-1.66-0.75-2.97-0.75H6.18V20.25z"/>
	<path class="st1" d="M31.54,0v4.6h-5.97V0H31.54z M31.57,6.99v18.28h-6V6.99H31.57z"/>
	<path class="st1" d="M41.81,25.27h-5.97V0h5.97V25.27z"/>
	<g>
		<path class="st1" d="M59.35,0v7.71c-0.4-0.28-2.49-1.61-5.97-1.61c-0.08,0-0.15,0-0.22,0.01c-2.43,0.05-4.42,0.92-5.96,2.62
			c-1.59,1.75-2.39,4.14-2.39,7.16c0,3.02,0.8,5.42,2.39,7.18c1.47,1.63,3.34,2.5,5.6,2.62c0.1,0.02,0.21,0.03,0.35,0.03
			c0.05,0,0.1,0,0.15,0c0.03,0,0.05,0,0.08,0c0.06,0,0.11-0.01,0.17-0.01c3.45-0.08,5.31-1.24,5.8-1.59v1.15h5.97V0H59.35z
			 M58.45,19.96c-0.8,0.87-1.83,1.31-3.11,1.31c-1.25,0-2.29-0.48-3.11-1.43C51.4,18.88,51,17.57,51,15.9s0.41-2.98,1.23-3.92
			c0.82-0.94,1.86-1.41,3.11-1.41c1.28,0,2.31,0.43,3.11,1.29c0.8,0.86,1.19,2.21,1.19,4.04C59.64,17.73,59.24,19.09,58.45,19.96z"
			/>
	</g>
</g>
</svg>
